# AST/ASF file generated using VICON BodyLanguage
# -----------------------------------------------
:version 1.10
:name VICON
:units
  mass 1.0
  length 0.45
  angle deg
:documentation
   .ast/.asf automatically generated from VICON data using
   VICON BodyBuilder and BodyLanguage model FoxedUp or BRILLIANT.MOD
:root
   order TX TY TZ RX RY RZ
   axis XYZ
   position 0 0 0  
   orientation 0 0 0 
:bonedata
  begin
     id 1 
     name lhipjoint
     direction 0.610259 -0.730986 0.305356 
     length 2.50941 
     axis 0 0 0  XYZ
  end
  begin
     id 2 
     name lfemur
     direction 0.34202 -0.939693 0  
     length 7.48822  
     axis 0 0 20  XYZ
    dof rx ry rz
    limits (-160.0 20.0)
           (-70.0 70.0)
           (-60.0 70.0)
  end
  begin
     id 3 
     name ltibia
     direction 0.34202 -0.939693 0   
     length 7.60141   
     axis 0 0 20   XYZ
    dof rx
    limits (-10.0 170.0)
  end
  begin
     id 4 
     name lfoot
     direction 0.0673488 -0.185039 0.980421   
     length 2.04049   
     axis -90 7.62852e-016 20   XYZ
    dof rx rz
    limits (-45.0 90.0)
           (-70.0 20.0)
  end
  begin
     id 5 
     name ltoes
     direction 1.5356e-011 -4.21729e-011 1   
     length 1.02897   
     axis -90 7.62852e-016 20   XYZ
    dof rx
    limits (-90.0 20.0)
  end
  begin
     id 6 
     name rhipjoint
     direction -0.57612 -0.754205 0.315056   
     length 2.43216  
     axis 0 0 0  XYZ 
  end
  begin
     id 7 
     name rfemur
     direction -0.34202 -0.939693 0   
     length 7.42799   
     axis 0 0 -20   XYZ
    dof rx ry rz
    limits (-160.0 20.0)
           (-70.0 70.0)
           (-70.0 60.0)
  end
  begin
     id 8 
     name rtibia
     direction -0.34202 -0.939693 0   
     length 7.69484   
     axis 0 0 -20   XYZ
    dof rx
    limits (-10.0 170.0)
 end
 begin
     id 9 
     name rfoot
     direction -0.111837 -0.30727 0.945028   
     length 2.15769  
     axis -90 -7.62852e-016 -20   XYZ
    dof rx rz
    limits (-45.0 90.0)
           (-20.0 70.0)
  end
  begin
     id 10 
     name rtoes
     direction -1.53539e-011 -4.21878e-011 1   
     length 1.07391   
     axis -90 -7.62852e-016 -20   XYZ
    dof rx
    limits (-90.0 20.0)
  end
  begin
     id 11 
     name lowerback
     direction 0.00552624 0.990109 -0.140195   
     length 2.12403   
     axis 0 0 0   XYZ
    dof rx ry rz
    limits (-20.0 45.0)
           (-30.0 30.0)
           (-30.0 30.0)
  end
  begin
     id 12 
     name upperback
     direction 0.00361898 0.999976 -0.00584723   
     length 2.13232   
     axis 0 0 0   XYZ
    dof rx ry rz
    limits (-20.0 45.0)
           (-30.0 30.0)
           (-30.0 30.0)
  end
  begin
     id 13 
     name thorax
     direction -0.000331275 0.998253 0.0590847   
     length 2.17688   
     axis 0 0 0   XYZ
    dof rx ry rz
    limits (-20.0 45.0)
           (-30.0 30.0)
           (-30.0 30.0)
  end
  begin
     id 14 
     name lowerneck
     direction -0.0561561 0.979832 0.19177   
     length 1.64159   
     axis 0 0 0   XYZ
    dof rx ry rz
    limits (-20.0 45.0)
           (-30.0 30.0)
           (-30.0 30.0)
  end
  begin
     id 15 
     name upperneck
     direction 0.0827153 0.979385 -0.184293   
     length 1.68939   
     axis 0 0 0   XYZ
    dof rx ry rz
    limits (-20.0 45.0)
           (-30.0 30.0)
           (-30.0 30.0)
  end
  begin
     id 16
     name head
     direction 0.0278583 0.995936 -0.0856488  
     length 1.70207  
     axis 0 0 0   XYZ
    dof rx ry rz
    limits (-20.0 45.0)
           (-30.0 30.0)
           (-30.0 30.0)
  end
  begin
     id 17 
     name lclavicle
     direction 0.950993 0.301131 -0.0702275  
     length 3.41652  
     axis 0 0 0   XYZ
    dof ry rz
    limits (-20.0 10.0)
           (0.0 20.0)
  end
  begin
     id 18 
     name lhumerus
     direction 1 -4.48981e-011 -3.9662e-029   
     length 5.32955   
     axis 180 -30 -90   XYZ
    dof rx ry rz
    limits (-60.0 90.0)
           (-90.0 90.0)
           (-90.0 90.0)
  end
  begin
     id 19
     name lradius
     direction 1 -4.48925e-011 -9.0549e-027   
     length 3.69232   
     axis 180 -30 -90   XYZ
    dof rx
    limits (-10.0 170.0)
  end
  begin
     id 20
     name lwrist
     direction 1 -4.49007e-011 -1.49005e-026   
     length 1.84616   
     axis 9.0955e-015 90 90   XYZ
    dof ry
    limits (-180.0 0.0)
 end
  begin
     id 21 
     name lhand
     direction 1 -4.49016e-011 -2.98023e-026   
     length 0.536598   
     axis 1.90115e-014 90 90   XYZ
    dof rx rz
    limits (-90.0 90.0)
           (-45.0 45.0)
  end
  begin
     id 22 
     name lfingers
     direction 1 -4.48924e-011 -5.9578e-026   
     length 0.432619   
     axis 3.80223e-014 90 90   XYZ
    dof rx
    limits (0.0 90.0)
  end
  begin
     id 23
     name lthumb
     direction 0.707107 -6.34947e-011 0.707107   
     length 0.621157   
     axis -90 45 -3.84942e-014   XYZ
    dof rx rz
    limits (-45.0 45.0)
           (-45.0 45.0)
  end
  begin
     id 24 
     name rclavicle
     direction -0.955495 0.276497 -0.102848   
     length 3.36357  
     axis 0 0 0   XYZ 
    dof ry rz
    limits (-10.0 20.0)
           (-20.0 0.0)
  end
  begin
     id 25 
     name rhumerus
     direction -1 -4.48961e-011 3.30983e-027  
     length 5.23431   
     axis 180 30 90   XYZ
    dof rx ry rz
    limits (-90.0 60.0)
           (-90.0 90.0)
           (-90.0 90.0)
  end
  begin
     id 26 
     name rradius
     direction -1 -4.48965e-011 -6.63263e-027   
     length 3.55301   
     axis 180 30 90   XYZ
    dof rx
    limits (-10.0 170.0)
  end
  begin
     id 27 
     name rwrist
     direction -1 -4.48942e-011 -1.48958e-026   
     length 1.77651   
     axis 9.0955e-015 -90 -90   XYZ
    dof ry
    limits (-180.0 0.0)
  end
  begin
     id 28
     name rhand
     direction -1 -4.48977e-011 -2.97966e-026   
     length 0.772522   
     axis 1.90115e-014 -90 -90   XYZ
    dof rx rz
    limits (-90.0 90.0)
           (-45.0 45.0)
  end
  begin
     id 29
     name rfingers
     direction -1 -4.49135e-011 -5.96389e-026   
     length 0.622827   
     axis 3.80223e-014 -90 -90   XYZ
    dof rx
    limits (0.0 90.0)
  end
  begin
     id 30
     name rthumb
     direction -0.707107 -6.34969e-011 0.707107   
     length 0.894259   
     axis -90 -45 3.84942e-014   XYZ
    dof rx rz
    limits (-45.0 45.0)
           (-45.0 45.0)
  end
:hierarchy
  begin
    root lhipjoint rhipjoint lowerback
    lhipjoint lfemur
    lfemur ltibia
    ltibia lfoot
    lfoot ltoes
    rhipjoint rfemur
    rfemur rtibia
    rtibia rfoot
    rfoot rtoes
    lowerback upperback
    upperback thorax
    thorax lowerneck lclavicle rclavicle
    lowerneck upperneck
    upperneck head
    lclavicle lhumerus
    lhumerus lradius
    lradius lwrist
    lwrist lhand lthumb
    lhand lfingers
    rclavicle rhumerus
    rhumerus rradius
    rradius rwrist
    rwrist rhand rthumb
    rhand rfingers
  end

#!OML:ASF F:\VICON\USERDATA\INSTALL\rory3\rory3.ASF
:FULLY-SPECIFIED
:DEGREES
1
root 13.2386 17.908 -18.5781 3.07725 1.6313 -0.991
lowerback 9.41694 2.81522 2.62074
upperback 0.852361 3.99763 -0.365926
thorax -4.17905 1.93009 -2.35788
lowerneck -18.8625 -7.66639 -13.1735
upperneck 25.8171 -9.42482 9.15836
head 12.8578 -4.32947 4.12118
rclavicle -2.56432e-014 -3.42904e-015
rhumerus -32.0238 -12.6009 -83.6981
rradius 32.1573
rwrist 4.17249
rhand -14.722 10.2993
rfingers 7.12502
rthumb 11.4328 -19.369
lclavicle -2.56432e-014 -3.42904e-015
lhumerus -39.2847 22.2909 71.8351
lradius 24.2357
lwrist -14.4626
lhand -16.2488 22.1281
lfingers 7.12502
lthumb 9.96009 51.8725
rfemur 14.8363 -0.665605 25.2201
rtibia 16.589
rfoot -4.9463 -3.24381
rtoes -6.37219
lfemur -22.2276 0.31635 -21.8205
ltibia 18.9223
lfoot -0.632794 -3.63483
ltoes -0.811302
2
root 13.2605 17.9272 -18.4382 2.99062 1.77932 -0.745568
lowerback 9.3064 2.82497 2.33852
upperback 0.943407 3.97592 -0.397659
thorax -4.0406 1.92771 -2.22067
lowerneck -19.0562 -7.7589 -13.2544
upperneck 25.797 -9.51119 9.17932
head 12.9078 -4.36701 4.1217
rclavicle -2.93083e-014 1.2424e-014
rhumerus -32.1832 -12.4958 -83.5872
rradius 32.0642
rwrist 3.96718
rhand -15.0406 10.6159
rfingers 7.12502
rthumb 11.1256 -19.0691
lclavicle -2.93083e-014 1.2424e-014
lhumerus -38.8519 21.5894 72.5434
lradius 24.5076
lwrist -13.516
lhand -15.8695 21.7531
lfingers 7.12502
lthumb 10.326 51.4796
rfemur 14.1388 -0.740318 24.7986
rtibia 18.817
rfoot -4.29038 -2.77258
rtoes -6.46364
lfemur -21.4721 0.924657 -22.2804
ltibia 18.5945
lfoot -0.728358 -4.47485
ltoes -0.479342
3
root 13.282 17.9499 -18.3023 2.95191 1.95947 -0.487123
lowerback 9.26485 2.81534 2.03972
upperback 0.941693 3.93044 -0.428871
thorax -4.03946 1.90994 -2.07862
lowerneck -19.1916 -7.82019 -13.4703
upperneck 25.8749 -9.56481 9.33489
head 12.998 -4.38881 4.20842
rclavicle -7.60724e-014 -9.93923e-015
rhumerus -32.4562 -12.4364 -83.4354
rradius 32.0376
rwrist 3.92703
rhand -15.203 10.367
rfingers 7.12502
rthumb 10.9689 -19.3265
lclavicle -7.60724e-014 -9.93923e-015
lhumerus -38.6629 20.5727 73.2498
lradius 24.9495
lwrist -12.5508
lhand -15.4583 23.4589
lfingers 7.12502
lthumb 10.7227 53.1653
rfemur 13.2652 -0.827883 24.3638
rtibia 21.1596
rfoot -3.35354 -2.27316
rtoes -5.82274
lfemur -20.7508 1.42234 -22.7205
ltibia 18.1946
lfoot -0.778681 -5.12569
ltoes 0.643154
4
root 13.3039 17.9653 -18.1635 2.95328 2.07125 -0.260585
lowerback 9.20738 2.84867 1.80652
upperback 0.880879 3.94642 -0.527519
thorax -4.07872 1.91999 -2.05151
lowerneck -19.172 -7.88118 -13.483
upperneck 25.9308 -9.69518 9.456
head 13.0436 -4.43293 4.23585
rclavicle -4.8081e-015 -6.95746e-015
rhumerus -32.8411 -12.393 -83.3473
rradius 32.0658
rwrist 3.84064
rhand -15.0554 9.88537
rfingers 7.12502
rthumb 11.1113 -19.8005
lclavicle -4.8081e-015 -6.95746e-015
lhumerus -38.5214 20.4924 73.2619
lradius 25.0403
lwrist -12.7946
lhand -14.3867 27.8194
lfingers 7.12502
lthumb 11.7562 57.4695
rfemur 12.3747 -1.04984 23.9152
rtibia 23.3367
rfoot -1.95037 -1.74866
rtoes -5.08418
lfemur -20.0935 2.12311 -23.1548
ltibia 17.852
lfoot -0.982595 -5.93774
ltoes 1.42563
5
root 13.3265 17.9765 -18.027 2.87462 2.20014 -0.0380344
lowerback 9.20423 2.84025 1.54496
upperback 0.884228 3.90617 -0.583238
thorax -4.08884 1.90395 -1.95828
lowerneck -19.1711 -7.91405 -13.4501
upperneck 25.9044 -9.76511 9.49585
head 13.043 -4.45535 4.23215
rclavicle 2.38666e-014 2.5345e-015
rhumerus -33.0431 -12.3583 -83.2007
rradius 31.9108
rwrist 3.93192
rhand -14.4817 9.89776
rfingers 7.12502
rthumb 11.6646 -19.7575
lclavicle 2.38666e-014 2.5345e-015
lhumerus -38.3064 20.1679 73.5955
lradius 25.3018
lwrist -12.4156
lhand -13.7243 32.6362
lfingers 7.12502
lthumb 12.3949 62.2487
rfemur 11.4906 -1.34235 23.4686
rtibia 25.5553
rfoot -0.347627 -1.22748
rtoes -4.88529
lfemur -19.3377 2.6459 -23.5375
ltibia 17.4881
lfoot -1.24355 -6.63299
ltoes 2.11193
6
root 13.3496 17.9906 -17.892 2.7181 2.2916 0.0913769
lowerback 9.25254 2.76507 1.36152
upperback 0.924301 3.78871 -0.564264
thorax -4.09215 1.84914 -1.82357
lowerneck -19.2144 -7.86846 -13.6087
upperneck 25.8269 -9.68001 9.64252
head 13.0271 -4.41424 4.33069
rclavicle 9.57894e-015 3.52843e-015
rhumerus -33.1358 -12.319 -83.0301
rradius 31.6718
rwrist 4.356
rhand -14.1069 10.1082
rfingers 7.12502
rthumb 12.0261 -19.5263
lclavicle 9.57894e-015 3.52843e-015
lhumerus -38.1188 19.7604 74.0438
lradius 25.677
lwrist -11.6729
lhand -13.5534 35.1647
lfingers 7.12502
lthumb 12.5597 64.7672
rfemur 10.6045 -1.49234 23.1161
rtibia 27.7856
rfoot 1.45217 -0.785743
rtoes -3.18185
lfemur -18.4727 2.90459 -23.7541
ltibia 17.1204
lfoot -1.46294 -7.11259
ltoes 2.51124
7
root 13.3723 18.0065 -17.7574 2.60046 2.3644 0.25915
lowerback 9.31612 2.72718 1.15093
upperback 0.896922 3.71677 -0.583332
thorax -4.17098 1.81562 -1.72173
lowerneck -19.189 -7.81683 -13.6006
upperneck 25.8062 -9.60487 9.62648
head 13.0009 -4.38337 4.33738
rclavicle -1.63128e-014 3.32964e-015
rhumerus -33.3619 -12.3031 -82.9054
rradius 31.5659
rwrist 4.79571
rhand -14.3093 10.3848
rfingers 7.12502
rthumb 11.8309 -19.261
lclavicle -1.63128e-014 3.32964e-015
lhumerus -37.9804 19.8704 74.1081
lradius 25.8139
lwrist -11.5269
lhand -13.9173 33.1949
lfingers 7.12502
lthumb 12.2089 62.8186
rfemur 9.58283 -1.52604 22.7372
rtibia 30.0964
rfoot 3.29794 -0.560817
rtoes -0.142481
lfemur -17.6176 3.2045 -24.0266
ltibia 16.6767
lfoot -1.6086 -7.56191
ltoes 3.0209
8
root 13.3892 18.0236 -17.6349 2.5525 2.69279 0.467463
lowerback 9.47719 2.63439 0.89858
upperback 0.807959 3.56655 -0.632015
thorax -4.37108 1.74221 -1.62472
lowerneck -19.077 -7.7831 -13.4624
upperneck 25.7914 -9.5762 9.49754
head 12.9511 -4.37653 4.27018
rclavicle -1.88224e-014 1.20265e-014
rhumerus -33.5882 -12.3397 -82.8105
rradius 31.4778
rwrist 5.21953
rhand -14.8205 10.5541
rfingers 7.12502
rthumb 11.3379 -19.1194
lclavicle -1.88224e-014 1.20265e-014
lhumerus -37.8796 20.0157 74.1482
lradius 25.9996
lwrist -11.6714
lhand -15.1535 26.8149
lfingers 7.12502
lthumb 11.0167 56.5058
rfemur 8.38653 -1.75992 22.3906
rtibia 32.5061
rfoot 5.16165 -0.247031
rtoes 0.695964
lfemur -16.8352 3.65986 -24.385
ltibia 16.0989
lfoot -1.61236 -8.3049
ltoes 3.76733
9
root 13.4006 18.0404 -17.5247 2.55912 3.24396 0.801223
lowerback 9.65554 2.4359 0.482102
upperback 0.771747 3.25594 -0.698287
thorax -4.53749 1.59377 -1.43122
lowerneck -19.1598 -7.74612 -13.4919
upperneck 25.7898 -9.54411 9.63351
head 12.9728 -4.34621 4.33404
rclavicle -6.07225e-014 -3.03147e-015
rhumerus -33.5248 -12.2961 -82.79
rradius 31.2607
rwrist 5.55428
rhand -14.8385 10.0733
rfingers 7.12502
rthumb 11.3205 -19.6012
lclavicle -6.07225e-014 -3.03147e-015
lhumerus -37.6711 19.6996 74.4624
lradius 26.4023
lwrist -11.2804
lhand -11.1379 37.0696
lfingers 7.12502
lthumb 14.8876 66.5147
rfemur 7.10621 -2.27583 21.9288
rtibia 34.962
rfoot 7.11712 0.526018
rtoes -0.735754
lfemur -16.1109 4.20528 -24.887
ltibia 15.4135
lfoot -1.37757 -9.29009
ltoes 5.85114
10
root 13.416 18.0537 -17.4067 2.56203 3.53851 1.18737
lowerback 9.68798 2.31845 -0.0121547
upperback 0.814424 3.04466 -0.738447
thorax -4.53999 1.49859 -1.1688
lowerneck -19.4118 -7.76493 -13.5008
upperneck 25.796 -9.53633 9.63873
head 13.0268 -4.33566 4.33415
rclavicle -1.08959e-014 8.64713e-015
rhumerus -33.4543 -12.2523 -82.6951
rradius 31.1749
rwrist 5.78516
rhand -14.5629 9.57975
rfingers 7.12502
rthumb 11.5863 -20.08
lclavicle -1.08959e-014 8.64713e-015
lhumerus -37.3098 19.3548 74.8794
lradius 26.7312
lwrist -10.7503
lhand -13.0828 33.0889
lfingers 7.12502
lthumb 13.0133 62.663
rfemur 5.80713 -2.60078 21.3586
rtibia 37.4393
rfoot 8.86802 1.24573
rtoes -1.10379
lfemur -15.2479 4.55834 -25.3889
ltibia 14.5841
lfoot -1.11813 -9.82976
ltoes 8.00445
11
root 13.4351 18.0663 -17.2847 2.50021 3.59936 1.45165
lowerback 9.73666 2.25669 -0.346548
upperback 0.864291 2.92476 -0.770702
thorax -4.53228 1.44549 -0.999935
lowerneck -19.5578 -7.73999 -13.3885
upperneck 25.6833 -9.46084 9.48505
head 12.9836 -4.30607 4.2622
rclavicle -2.48854e-014 -1.02871e-014
rhumerus -33.4954 -12.2527 -82.596
rradius 31.2446
rwrist 6.2913
rhand -14.9394 10.2192
rfingers 7.12502
rthumb 11.2232 -19.4606
lclavicle -2.48854e-014 -1.02871e-014
lhumerus -36.9207 19.3656 75.1016
lradius 26.9243
lwrist -10.6507
lhand -14.0236 29.2696
lfingers 7.12502
lthumb 12.1063 58.8993
rfemur 4.50846 -2.69616 20.869
rtibia 39.8944
rfoot 10.4867 1.61869
rtoes 1.11763
lfemur -14.2273 4.69165 -25.6966
ltibia 13.6611
lfoot -1.14777 -10.1319
ltoes 7.56066
12
root 13.4509 18.0815 -17.1701 2.52823 3.8345 1.74089
lowerback 9.89442 2.14765 -0.673859
upperback 0.776546 2.73756 -0.855108
thorax -4.7255 1.3576 -0.888436
lowerneck -19.6115 -7.63817 -13.3266
upperneck 25.6871 -9.331 9.49747
head 12.9743 -4.24015 4.28108
rclavicle -2.77677e-015 -3.13086e-015
rhumerus -33.6143 -12.2219 -82.5773
rradius 31.2418
rwrist 6.54373
rhand -15.3349 10.7633
rfingers 7.12502
rthumb 10.8417 -18.9369
lclavicle -2.77677e-015 -3.13086e-015
lhumerus -36.7322 19.0691 75.3364
lradius 27.2917
lwrist -10.5023
lhand -14.4377 25.1243
lfingers 7.12502
lthumb 11.7071 54.7772
rfemur 3.07621 -2.83097 20.4198
rtibia 42.3258
rfoot 12.3189 1.73678
rtoes 5.48346
lfemur -13.308 4.97813 -26.0628
ltibia 12.6792
lfoot -1.55878 -11.0287
ltoes 4.38894
13
root 13.4755 18.0877 -17.0366 2.26509 3.68868 2.11857
lowerback 10.0266 2.17935 -1.02472
upperback 0.826931 2.7317 -1.00215
thorax -4.75603 1.36019 -0.848269
lowerneck -19.5651 -7.57938 -13.2559
upperneck 25.6784 -9.2822 9.51807
head 12.9511 -4.21076 4.28766
rclavicle -1.4356e-014 7.60351e-015
rhumerus -33.6599 -12.3613 -82.5509
rradius 31.0097
rwrist 6.57547
rhand -15.2954 10.5073
rfingers 7.12502
rthumb 10.8798 -19.1908
lclavicle -1.4356e-014 7.60351e-015
lhumerus -36.5343 18.3842 75.6747
lradius 27.6253
lwrist -9.75109
lhand -15.4648 23.8748
lfingers 7.12502
lthumb 10.7164 53.5815
rfemur 2.0408 -2.81874 19.7358
rtibia 44.7109
rfoot 14.0891 1.98556
rtoes 10.6147
lfemur -11.9496 5.39845 -26.4906
ltibia 11.627
lfoot -1.93601 -11.4917
ltoes 2.66902
14
root 13.4931 18.0915 -16.9195 2.12353 3.78291 2.47127
lowerback 10.1168 2.12415 -1.40705
upperback 0.930797 2.61087 -1.08531
thorax -4.71161 1.30721 -0.70458
lowerneck -19.6725 -7.60668 -13.1738
upperneck 25.6109 -9.28766 9.38255
head 12.9334 -4.21877 4.21464
rclavicle 9.53545e-015 5.889e-015
rhumerus -33.5402 -12.5154 -82.4752
rradius 30.8592
rwrist 6.51265
rhand -14.8927 10.0049
rfingers 7.12502
rthumb 11.2683 -19.6724
lclavicle 9.53545e-015 5.889e-015
lhumerus -36.0295 17.7752 76.1356
lradius 27.8783
lwrist -9.04663
lhand -15.7198 24.3316
lfingers 7.12502
lthumb 10.4705 54.0508
rfemur 0.831888 -3.05514 19.1459
rtibia 47.0873
rfoot 14.7278 2.01794
rtoes 11.1781
lfemur -10.7412 5.78779 -26.9024
ltibia 10.4061
lfoot -1.76309 -11.9792
ltoes 2.55168
